<?xml version="1.0" encoding="utf-8"?>
<!-- Generator: Adobe Illustrator 28.0.0, SVG Export Plug-In . SVG Version: 6.00 Build 0)  -->
<svg version="1.1" id="Layer_1" xmlns="http://www.w3.org/2000/svg" xmlns:xlink="http://www.w3.org/1999/xlink" x="0px" y="0px"
	 viewBox="0 0 16 16" style="enable-background:new 0 0 16 16;" xml:space="preserve">
<g>
	<path d="M0.52,8.69c0-0.5-0.44-0.63-0.44-1.07c0-0.63,1.93-1.47,2.3-0.79c0.23-0.15,0.52-0.24,0.9-0.24c0.7,0,1.16,0.28,1.38,0.74
		C4.91,6.87,5.34,6.59,6,6.59c1.01,0,1.52,0.58,1.52,1.47c0,0.79,0.35,1.09,0.35,1.73c0,0.51-0.4,0.69-1.13,0.69
		C6,10.47,5.6,10.3,5.6,9.79c0-0.63,0.34-0.93,0.35-1.67c0-0.49-0.04-0.94-0.35-0.94c-0.51,0-0.73,1.12-0.54,2.07
		C5.11,9.4,5.15,9.58,5.15,9.79c0,0.51-0.4,0.69-1.13,0.69c-0.74,0-1.14-0.18-1.14-0.69c0-0.63,0.34-0.93,0.35-1.67
		c0-0.49-0.03-0.94-0.35-0.94c-0.52,0-0.9,1.33-0.56,2.17c0.02,0.04,0.04,0.08,0.06,0.13c0.03,0.09,0.06,0.19,0.06,0.31
		c0,0.51-0.4,0.69-1.14,0.69S0.16,10.3,0.16,9.79C0.16,9.33,0.52,9.38,0.52,8.69z"/>
	<path d="M8.16,8.53c0-1.07,0.97-1.94,2.16-1.94c0.52,0,1.01,0.16,1.38,0.44V6.92c0-0.79-0.36-1.09-0.36-1.73
		c0-0.51,0.4-0.7,1.14-0.7s1.14,0.19,1.14,0.7c0,0.64-0.36,0.94-0.36,1.73v1.13c0,0.79,0.36,1.09,0.36,1.73
		c0,0.51-0.4,0.69-1.14,0.69c-0.5,0-0.85-0.08-1.01-0.29c-0.34,0.19-0.73,0.29-1.15,0.29C9.13,10.47,8.16,9.61,8.16,8.53z
		 M10.07,8.53c0,0.7,0.37,1.27,0.81,1.27c0.45,0,0.83-0.57,0.83-1.27c0-0.7-0.37-1.27-0.83-1.27C10.44,7.26,10.07,7.83,10.07,8.53z"
		/>
	<path d="M14.54,10.77c0-0.42,0.29-0.73,0.7-0.73s0.69,0.3,0.69,0.73c0,0.42-0.28,0.73-0.71,0.73
		C14.82,11.51,14.54,11.19,14.54,10.77z"/>
</g>
</svg>
